<svg width="888" height="404" viewBox="0 0 888 404" fill="none" xmlns="http://www.w3.org/2000/svg">
<g clip-path="url(#clip0_1_6)">
<rect width="888" height="404" fill="white"/>
<rect width="888" height="404" fill="#D9D9D9"/>
<circle cx="861" cy="380" r="122" fill="#561410"/>
<circle cx="51" cy="55" r="122" fill="#561410"/>
<circle cx="187" cy="393" r="41" fill="#561410"/>
<circle cx="799.321" cy="20.0047" r="41" transform="rotate(119.991 799.321 20.0047)" fill="#561410"/>
<circle cx="118.5" cy="334.5" r="24.5" fill="#561410"/>
<circle cx="767.466" cy="104.265" r="24.5" transform="rotate(119.991 767.466 104.265)" fill="#561410"/>
<path d="M214.368 181.76V195.392H236.352V208.064H214.368V222.848H239.232V236H197.952V168.608H239.232V181.76H214.368ZM246.626 209.12C246.626 203.616 247.65 198.784 249.698 194.624C251.81 190.464 254.658 187.264 258.242 185.024C261.826 182.784 265.826 181.664 270.242 181.664C273.762 181.664 276.962 182.4 279.842 183.872C282.786 185.344 285.09 187.328 286.754 189.824V164.96H303.17V236H286.754V228.32C285.218 230.88 283.01 232.928 280.13 234.464C277.314 236 274.018 236.768 270.242 236.768C265.826 236.768 261.826 235.648 258.242 233.408C254.658 231.104 251.81 227.872 249.698 223.712C247.65 219.488 246.626 214.624 246.626 209.12ZM286.754 209.216C286.754 205.12 285.602 201.888 283.298 199.52C281.058 197.152 278.306 195.968 275.042 195.968C271.778 195.968 268.994 197.152 266.69 199.52C264.45 201.824 263.33 205.024 263.33 209.12C263.33 213.216 264.45 216.48 266.69 218.912C268.994 221.28 271.778 222.464 275.042 222.464C278.306 222.464 281.058 221.28 283.298 218.912C285.602 216.544 286.754 213.312 286.754 209.216ZM367.942 182.432V236H351.526V228.704C349.862 231.072 347.59 232.992 344.71 234.464C341.894 235.872 338.758 236.576 335.302 236.576C331.206 236.576 327.59 235.68 324.454 233.888C321.318 232.032 318.886 229.376 317.158 225.92C315.43 222.464 314.566 218.4 314.566 213.728V182.432H330.886V211.52C330.886 215.104 331.814 217.888 333.67 219.872C335.526 221.856 338.022 222.848 341.158 222.848C344.358 222.848 346.886 221.856 348.742 219.872C350.598 217.888 351.526 215.104 351.526 211.52V182.432H367.942ZM381.941 232.544H406.997L406.325 236H376.949L388.949 168.608H393.269L381.941 232.544ZM448.105 183.2C452.521 183.2 456.265 184.064 459.337 185.792C462.473 187.456 464.809 189.728 466.345 192.608C467.945 195.424 468.745 198.592 468.745 202.112C468.745 203.648 468.617 205.056 468.361 206.336C467.977 208.64 467.593 210.368 467.209 211.52H422.185C421.929 213.568 421.801 215.04 421.801 215.936C421.801 221.44 423.465 225.664 426.793 228.608C430.121 231.552 434.313 233.024 439.369 233.024C444.425 233.024 448.905 231.776 452.809 229.28C456.777 226.72 459.593 223.264 461.257 218.912H465.769C463.721 224.224 460.297 228.544 455.497 231.872C450.761 235.136 445.161 236.768 438.697 236.768C432.297 236.768 427.145 234.912 423.241 231.2C419.401 227.488 417.481 222.432 417.481 216.032C417.481 214.048 417.673 212 418.057 209.888C419.017 204.448 420.937 199.712 423.817 195.68C426.697 191.648 430.217 188.576 434.377 186.464C438.601 184.288 443.177 183.2 448.105 183.2ZM463.753 208.16C464.201 206.304 464.425 204.416 464.425 202.496C464.425 197.44 462.793 193.568 459.529 190.88C456.329 188.192 452.265 186.848 447.337 186.848C443.689 186.848 440.169 187.648 436.777 189.248C433.385 190.848 430.441 193.248 427.945 196.448C425.449 199.648 423.721 203.552 422.761 208.16H463.753ZM478.057 209.888C479.017 204.512 480.905 199.808 483.721 195.776C486.601 191.744 490.153 188.64 494.377 186.464C498.601 184.288 503.145 183.2 508.009 183.2C513.321 183.2 517.673 184.544 521.065 187.232C524.521 189.856 526.665 193.28 527.497 197.504L533.257 164.96H537.481L524.905 236H520.681L523.177 222.176C520.937 226.464 517.641 229.984 513.289 232.736C508.937 235.424 504.009 236.768 498.505 236.768C492.105 236.768 486.985 234.912 483.145 231.2C479.369 227.424 477.481 222.336 477.481 215.936C477.481 214.016 477.673 212 478.057 209.888ZM525.289 209.888C525.609 207.968 525.769 206.272 525.769 204.8C525.769 199.36 524.137 195.04 520.873 191.84C517.609 188.576 513.289 186.944 507.913 186.944C503.689 186.944 499.785 187.872 496.201 189.728C492.681 191.52 489.705 194.144 487.273 197.6C484.905 201.056 483.305 205.152 482.473 209.888C482.153 212 481.993 213.792 481.993 215.264C481.993 220.832 483.561 225.184 486.697 228.32C489.897 231.392 494.249 232.928 499.753 232.928C503.785 232.928 507.593 232 511.177 230.144C514.825 228.224 517.865 225.536 520.297 222.08C522.793 218.56 524.457 214.496 525.289 209.888ZM572.603 183.2C578.043 183.2 582.459 184.544 585.851 187.232C589.243 189.856 591.323 193.248 592.091 197.408L594.491 183.872H598.811L589.307 237.632C588.411 242.432 586.587 246.624 583.835 250.208C581.147 253.856 577.819 256.64 573.851 258.56C569.947 260.544 565.787 261.536 561.371 261.536C554.843 261.536 549.691 259.968 545.915 256.832C542.203 253.696 540.187 249.472 539.867 244.16H544.187C544.699 248.32 546.491 251.616 549.562 254.048C552.635 256.544 556.795 257.792 562.043 257.792C565.691 257.792 569.115 256.96 572.315 255.296C575.579 253.696 578.331 251.36 580.571 248.288C582.811 245.28 584.283 241.728 584.987 237.632L587.675 222.368C585.435 226.528 582.139 229.984 577.787 232.736C573.435 235.424 568.539 236.768 563.099 236.768C556.699 236.768 551.579 234.912 547.739 231.2C543.963 227.424 542.075 222.336 542.075 215.936C542.075 214.016 542.267 212 542.651 209.888C543.611 204.512 545.499 199.808 548.315 195.776C551.195 191.744 554.747 188.64 558.971 186.464C563.195 184.288 567.739 183.2 572.603 183.2ZM589.883 209.888C590.203 207.968 590.363 206.272 590.363 204.8C590.363 199.36 588.731 195.04 585.467 191.84C582.203 188.576 577.883 186.944 572.507 186.944C568.283 186.944 564.379 187.872 560.795 189.728C557.275 191.52 554.299 194.144 551.867 197.6C549.499 201.056 547.899 205.152 547.067 209.888C546.747 212 546.587 213.792 546.587 215.264C546.587 220.832 548.155 225.184 551.291 228.32C554.491 231.392 558.843 232.928 564.347 232.928C568.379 232.928 572.187 232 575.771 230.144C579.419 228.224 582.459 225.536 584.891 222.08C587.387 218.56 589.051 214.496 589.883 209.888ZM637.292 183.2C641.708 183.2 645.452 184.064 648.524 185.792C651.66 187.456 653.996 189.728 655.532 192.608C657.132 195.424 657.932 198.592 657.932 202.112C657.932 203.648 657.804 205.056 657.548 206.336C657.164 208.64 656.78 210.368 656.396 211.52H611.372C611.116 213.568 610.988 215.04 610.988 215.936C610.988 221.44 612.652 225.664 615.98 228.608C619.308 231.552 623.5 233.024 628.556 233.024C633.612 233.024 638.092 231.776 641.996 229.28C645.964 226.72 648.78 223.264 650.444 218.912H654.956C652.908 224.224 649.484 228.544 644.684 231.872C639.948 235.136 634.348 236.768 627.884 236.768C621.484 236.768 616.332 234.912 612.428 231.2C608.588 227.488 606.668 222.432 606.668 216.032C606.668 214.048 606.86 212 607.244 209.888C608.204 204.448 610.124 199.712 613.004 195.68C615.884 191.648 619.404 188.576 623.564 186.464C627.788 184.288 632.364 183.2 637.292 183.2ZM652.94 208.16C653.388 206.304 653.612 204.416 653.612 202.496C653.612 197.44 651.98 193.568 648.716 190.88C645.516 188.192 641.452 186.848 636.524 186.848C632.876 186.848 629.356 187.648 625.964 189.248C622.572 190.848 619.628 193.248 617.132 196.448C614.636 199.648 612.908 203.552 611.948 208.16H652.94ZM676.94 195.104C678.988 191.136 681.804 188.096 685.388 185.984C689.036 183.872 693.356 182.816 698.348 182.816L697.484 187.328H696.14C691.02 187.328 686.508 188.8 682.604 191.744C678.7 194.624 676.172 199.36 675.02 205.952L669.644 236H665.324L674.636 183.872H678.956L676.94 195.104Z" fill="#561410"/>
</g>
<defs>
<clipPath id="clip0_1_6">
<rect width="888" height="404" fill="white"/>
</clipPath>
</defs>
</svg>
